<?xml version="1.0" standalone="no"?>
<!DOCTYPE svg PUBLIC "-//W3C//DTD SVG 20010904//EN"
 "http://www.w3.org/TR/2001/REC-SVG-20010904/DTD/svg10.dtd">
<svg version="1.0" xmlns="http://www.w3.org/2000/svg"
 width="1806.000000pt" height="290.000000pt" viewBox="0 0 1806.000000 290.000000"
 preserveAspectRatio="xMidYMid meet">

<g transform="translate(0.000000,290.000000) scale(0.100000,-0.100000)"
fill="#000000" stroke="none">
<path  d="M7735 2893 c-232 -19 -471 -104 -665 -236 -158 -108 -331 -311 -425
-497 -178 -354 -204 -867 -63 -1269 158 -454 494 -752 960 -852 136 -30 407
-37 556 -15 435 64 778 301 965 667 78 153 118 319 84 348 -29 23 -55 2 -104
-87 -64 -116 -222 -277 -335 -340 -163 -92 -324 -127 -543 -119 -212 9 -359
53 -514 158 -272 181 -442 510 -454 879 l-2 75 984 3 983 2 -7 83 c-30 351
-148 629 -359 840 -260 261 -652 394 -1061 360z m288 -133 c247 -76 364 -340
393 -887 l7 -123 -611 0 c-392 0 -613 4 -617 10 -3 5 -1 65 5 132 48 519 246
831 563 888 70 12 184 3 260 -20z"/>
<path d="M13325 2893 c-200 -23 -313 -52 -442 -113 -299 -140 -474 -377 -490
-664 -13 -231 49 -409 199 -571 145 -156 349 -262 842 -440 87 -31 192 -72
232 -90 155 -71 282 -174 329 -265 98 -192 15 -463 -171 -558 -99 -50 -181
-67 -334 -67 -166 0 -228 13 -355 74 -203 97 -364 276 -512 566 -33 66 -77
163 -97 215 -66 170 -66 170 -96 170 -14 0 -31 -5 -38 -12 -9 -9 -12 -130 -12
-483 l0 -472 38 -12 c415 -132 892 -191 1227 -150 331 40 619 191 769 403 119
167 176 355 176 578 0 374 -196 610 -665 802 -60 24 -213 79 -340 121 -300
100 -454 174 -540 260 -76 76 -100 135 -98 240 6 296 308 438 682 320 105 -34
190 -86 288 -179 129 -121 216 -260 357 -569 36 -80 56 -98 81 -77 13 11 15
67 15 381 l0 368 -90 45 c-251 126 -699 210 -955 179z"/>
<path d="M16288 2890 c-570 -60 -1036 -368 -1263 -835 -90 -186 -124 -328
-132 -555 -8 -257 29 -435 136 -655 201 -412 586 -698 1075 -801 151 -31 417
-43 576 -25 553 64 1002 358 1231 808 157 308 191 679 93 1021 -33 118 -139
328 -218 432 -86 115 -244 265 -357 339 -190 125 -413 213 -637 252 -136 23
-378 32 -504 19z m346 -125 c104 -27 166 -64 251 -150 153 -152 235 -371 282
-748 23 -186 22 -641 -1 -832 -75 -619 -299 -914 -692 -915 -95 0 -213 27
-287 67 -69 37 -183 152 -230 233 -128 221 -197 582 -197 1030 0 691 154 1132
445 1276 126 62 285 76 429 39z"/>
<path fill="#0064FA" d="M705 2876 c-106 -17 -172 -39 -276 -92 -215 -110 -361 -301 -409
-535 -25 -120 -25 -218 -1 -361 38 -220 100 -396 240 -683 147 -300 315 -577
604 -995 124 -179 133 -190 169 -190 31 0 68 31 68 57 0 9 -54 151 -120 314
-66 164 -143 364 -171 446 -54 160 -119 398 -119 440 0 23 3 25 32 19 78 -15
174 -18 265 -6 432 54 723 372 723 790 0 380 -247 690 -622 780 -108 26 -280
33 -383 16z"/>
<path fill="#0064FA" d="M2125 2865 c-14 -13 -25 -31 -25 -40 0 -8 56 -153 124 -322 68 -170
145 -370 170 -447 48 -141 116 -392 116 -426 0 -17 -7 -18 -129 -13 -146 7
-243 -5 -353 -43 -276 -94 -468 -307 -524 -584 -23 -113 -15 -296 16 -395 84
-267 279 -457 555 -541 82 -25 105 -27 260 -28 194 -1 254 10 393 75 331 153
502 459 463 829 -39 372 -240 831 -619 1415 -150 231 -361 533 -378 539 -28
11 -44 6 -69 -19z"/>
<path  d="M10158 2860 c-216 -26 -408 -155 -555 -375 -119 -177 -240 -505 -203
-550 19 -23 57 -18 75 8 8 13 35 73 59 134 138 344 299 540 427 518 159 -27
175 -299 53 -913 -41 -208 -170 -788 -288 -1302 -46 -201 -83 -366 -82 -367 1
-1 38 13 82 32 119 52 196 69 309 69 116 0 194 -18 304 -70 82 -38 85 -37 95
29 12 75 126 560 176 747 178 671 344 1066 518 1232 85 81 131 102 222 103 70
0 80 -3 150 -43 174 -99 195 -107 305 -107 88 1 107 4 160 28 165 76 246 255
217 475 -33 248 -206 386 -442 352 -86 -13 -118 -22 -191 -60 -252 -128 -494
-467 -735 -1028 -27 -63 -50 -109 -52 -104 -2 6 8 84 22 175 64 404 54 598
-37 770 -36 70 -126 155 -199 191 -102 49 -256 71 -390 56z"/>
<path  d="M3543 2845 c-9 -7 -13 -24 -11 -45 4 -40 18 -49 125 -80 83 -23 145
-66 188 -130 17 -25 270 -601 564 -1280 293 -679 544 -1250 558 -1268 19 -25
31 -32 57 -32 19 0 43 8 55 18 11 9 244 483 516 1052 631 1316 596 1243 667
1352 74 113 192 232 273 278 77 42 105 68 105 96 0 49 1 49 -519 49 -453 1
-487 -1 -503 -17 -38 -38 -8 -83 70 -109 59 -19 110 -47 151 -85 129 -116 126
-403 -8 -759 -33 -89 -405 -899 -420 -917 -3 -3 -82 174 -175 395 -93 221
-234 555 -314 742 -159 372 -169 408 -137 491 24 63 76 99 173 119 105 23 110
24 127 41 20 20 19 68 -2 85 -13 12 -146 14 -771 14 -512 0 -759 -3 -769 -10z"/>
</g>
</svg>
